<mxfile host="app.diagrams.net" agent="Mozilla/5.0 (Windows NT 10.0; Win64; x64) AppleWebKit/537.36 (KHTML, like Gecko) Chrome/130.0.0.0 Safari/537.36 Edg/130.0.0.0" version="24.8.4" pages="5">
  <diagram name="Pagina-1" id="7ch0LGoHsxWG8KzlQ04V">
    <mxGraphModel dx="1426" dy="755" grid="1" gridSize="10" guides="1" tooltips="1" connect="1" arrows="1" fold="1" page="1" pageScale="1" pageWidth="1169" pageHeight="827" math="0" shadow="0">
      <root>
        <mxCell id="0" />
        <mxCell id="1" parent="0" />
        <mxCell id="rMqFv7oUwcchYXSRW8Et-1" value="" style="rounded=0;whiteSpace=wrap;html=1;" vertex="1" parent="1">
          <mxGeometry x="320" y="120" width="440" height="240" as="geometry" />
        </mxCell>
        <mxCell id="rMqFv7oUwcchYXSRW8Et-4" style="edgeStyle=orthogonalEdgeStyle;rounded=0;orthogonalLoop=1;jettySize=auto;html=1;entryX=0;entryY=0.5;entryDx=0;entryDy=0;" edge="1" parent="1" source="rMqFv7oUwcchYXSRW8Et-2" target="rMqFv7oUwcchYXSRW8Et-3">
          <mxGeometry relative="1" as="geometry" />
        </mxCell>
        <mxCell id="rMqFv7oUwcchYXSRW8Et-2" value="&lt;b&gt;&lt;font style=&quot;font-size: 18px;&quot;&gt;BUFFER&lt;/font&gt;&lt;/b&gt;" style="rounded=0;whiteSpace=wrap;html=1;" vertex="1" parent="1">
          <mxGeometry x="80" y="200" width="160" height="80" as="geometry" />
        </mxCell>
        <mxCell id="rMqFv7oUwcchYXSRW8Et-3" value="" style="rounded=0;whiteSpace=wrap;html=1;dashed=1;" vertex="1" parent="1">
          <mxGeometry x="400" y="200" width="160" height="80" as="geometry" />
        </mxCell>
        <mxCell id="rMqFv7oUwcchYXSRW8Et-5" value="&lt;b&gt;&lt;font style=&quot;font-size: 18px;&quot;&gt;1) RESTORE BACKGROUND&lt;/font&gt;&lt;/b&gt;" style="text;html=1;align=left;verticalAlign=middle;whiteSpace=wrap;rounded=0;" vertex="1" parent="1">
          <mxGeometry x="80" y="50" width="280" height="30" as="geometry" />
        </mxCell>
      </root>
    </mxGraphModel>
  </diagram>
  <diagram name="Pagina-2" id="3XChuQN23C1afPB9ZHjZ">
    <mxGraphModel dx="1426" dy="755" grid="1" gridSize="10" guides="1" tooltips="1" connect="1" arrows="1" fold="1" page="1" pageScale="1" pageWidth="1169" pageHeight="827" math="0" shadow="0">
      <root>
        <mxCell id="50WiKXZ9tEgK9XQac4d8-0" />
        <mxCell id="50WiKXZ9tEgK9XQac4d8-1" parent="50WiKXZ9tEgK9XQac4d8-0" />
        <mxCell id="50WiKXZ9tEgK9XQac4d8-2" value="" style="rounded=0;whiteSpace=wrap;html=1;" vertex="1" parent="50WiKXZ9tEgK9XQac4d8-1">
          <mxGeometry x="320" y="120" width="440" height="240" as="geometry" />
        </mxCell>
        <mxCell id="50WiKXZ9tEgK9XQac4d8-4" value="&lt;b&gt;&lt;font style=&quot;font-size: 18px;&quot;&gt;BUFFER&lt;/font&gt;&lt;/b&gt;" style="rounded=0;whiteSpace=wrap;html=1;" vertex="1" parent="50WiKXZ9tEgK9XQac4d8-1">
          <mxGeometry x="80" y="200" width="160" height="80" as="geometry" />
        </mxCell>
        <mxCell id="oGC1vpxkNuN2iUvSxPLb-0" style="edgeStyle=orthogonalEdgeStyle;rounded=0;orthogonalLoop=1;jettySize=auto;html=1;entryX=1;entryY=0.5;entryDx=0;entryDy=0;" edge="1" parent="50WiKXZ9tEgK9XQac4d8-1" source="50WiKXZ9tEgK9XQac4d8-5" target="50WiKXZ9tEgK9XQac4d8-4">
          <mxGeometry relative="1" as="geometry" />
        </mxCell>
        <mxCell id="50WiKXZ9tEgK9XQac4d8-5" value="" style="rounded=0;whiteSpace=wrap;html=1;dashed=1;" vertex="1" parent="50WiKXZ9tEgK9XQac4d8-1">
          <mxGeometry x="440" y="200" width="160" height="80" as="geometry" />
        </mxCell>
        <mxCell id="50WiKXZ9tEgK9XQac4d8-6" value="&lt;b&gt;&lt;font style=&quot;font-size: 18px;&quot;&gt;2) SAVE BACKGROUND&lt;/font&gt;&lt;/b&gt;" style="text;html=1;align=left;verticalAlign=middle;whiteSpace=wrap;rounded=0;" vertex="1" parent="50WiKXZ9tEgK9XQac4d8-1">
          <mxGeometry x="80" y="50" width="280" height="30" as="geometry" />
        </mxCell>
      </root>
    </mxGraphModel>
  </diagram>
  <diagram name="Pagina-3" id="cUjJCQ00JHnz3mH_fv1o">
    <mxGraphModel dx="1426" dy="755" grid="1" gridSize="10" guides="1" tooltips="1" connect="1" arrows="1" fold="1" page="1" pageScale="1" pageWidth="1169" pageHeight="827" math="0" shadow="0">
      <root>
        <mxCell id="b-YoZ5lYToSyeqyqAwfY-0" />
        <mxCell id="b-YoZ5lYToSyeqyqAwfY-1" parent="b-YoZ5lYToSyeqyqAwfY-0" />
        <mxCell id="b-YoZ5lYToSyeqyqAwfY-2" value="" style="rounded=0;whiteSpace=wrap;html=1;" vertex="1" parent="b-YoZ5lYToSyeqyqAwfY-1">
          <mxGeometry x="320" y="120" width="440" height="240" as="geometry" />
        </mxCell>
        <mxCell id="ndhDxcCvAJGUZ3G1VxRu-0" style="edgeStyle=orthogonalEdgeStyle;rounded=0;orthogonalLoop=1;jettySize=auto;html=1;" edge="1" parent="b-YoZ5lYToSyeqyqAwfY-1" source="b-YoZ5lYToSyeqyqAwfY-3" target="b-YoZ5lYToSyeqyqAwfY-5">
          <mxGeometry relative="1" as="geometry" />
        </mxCell>
        <mxCell id="b-YoZ5lYToSyeqyqAwfY-3" value="&lt;b&gt;&lt;font style=&quot;font-size: 18px;&quot;&gt;BOB IMAGE&amp;nbsp;&lt;/font&gt;&lt;/b&gt;&lt;div&gt;&lt;b&gt;&lt;font style=&quot;font-size: 18px;&quot;&gt;DATA&lt;/font&gt;&lt;/b&gt;&lt;/div&gt;" style="rounded=0;whiteSpace=wrap;html=1;" vertex="1" parent="b-YoZ5lYToSyeqyqAwfY-1">
          <mxGeometry x="80" y="200" width="160" height="80" as="geometry" />
        </mxCell>
        <mxCell id="b-YoZ5lYToSyeqyqAwfY-5" value="" style="rounded=0;whiteSpace=wrap;html=1;" vertex="1" parent="b-YoZ5lYToSyeqyqAwfY-1">
          <mxGeometry x="440" y="200" width="160" height="80" as="geometry" />
        </mxCell>
        <mxCell id="b-YoZ5lYToSyeqyqAwfY-6" value="&lt;span style=&quot;font-size: 18px;&quot;&gt;&lt;b&gt;3) DRAW BOB&lt;/b&gt;&lt;/span&gt;" style="text;html=1;align=left;verticalAlign=middle;whiteSpace=wrap;rounded=0;" vertex="1" parent="b-YoZ5lYToSyeqyqAwfY-1">
          <mxGeometry x="80" y="50" width="280" height="30" as="geometry" />
        </mxCell>
      </root>
    </mxGraphModel>
  </diagram>
  <diagram name="Pagina-4" id="RumMge4QDOzHLMBJOlMJ">
    <mxGraphModel dx="1426" dy="755" grid="1" gridSize="10" guides="1" tooltips="1" connect="1" arrows="1" fold="1" page="1" pageScale="1" pageWidth="1169" pageHeight="827" math="0" shadow="0">
      <root>
        <mxCell id="A2EL7OXFkRKBXWNIuW4F-0" />
        <mxCell id="A2EL7OXFkRKBXWNIuW4F-1" parent="A2EL7OXFkRKBXWNIuW4F-0" />
        <mxCell id="YxU-ZAwT2Ezt56G2qYOe-6" value="" style="rounded=0;whiteSpace=wrap;html=1;" vertex="1" parent="A2EL7OXFkRKBXWNIuW4F-1">
          <mxGeometry x="60" y="40" width="200" height="360" as="geometry" />
        </mxCell>
        <mxCell id="A2EL7OXFkRKBXWNIuW4F-2" value="" style="rounded=0;whiteSpace=wrap;html=1;" vertex="1" parent="A2EL7OXFkRKBXWNIuW4F-1">
          <mxGeometry x="320" y="120" width="440" height="240" as="geometry" />
        </mxCell>
        <mxCell id="A2EL7OXFkRKBXWNIuW4F-3" value="&lt;b&gt;&lt;font style=&quot;font-size: 18px;&quot;&gt;BUFFER1&lt;/font&gt;&lt;/b&gt;" style="rounded=0;whiteSpace=wrap;html=1;" vertex="1" parent="A2EL7OXFkRKBXWNIuW4F-1">
          <mxGeometry x="80" y="200" width="160" height="80" as="geometry" />
        </mxCell>
        <mxCell id="A2EL7OXFkRKBXWNIuW4F-4" style="edgeStyle=orthogonalEdgeStyle;rounded=0;orthogonalLoop=1;jettySize=auto;html=1;entryX=1;entryY=0.5;entryDx=0;entryDy=0;" edge="1" parent="A2EL7OXFkRKBXWNIuW4F-1" source="A2EL7OXFkRKBXWNIuW4F-5" target="A2EL7OXFkRKBXWNIuW4F-3">
          <mxGeometry relative="1" as="geometry" />
        </mxCell>
        <mxCell id="YxU-ZAwT2Ezt56G2qYOe-10" style="edgeStyle=orthogonalEdgeStyle;rounded=0;orthogonalLoop=1;jettySize=auto;html=1;entryX=1;entryY=0.5;entryDx=0;entryDy=0;exitX=0;exitY=0;exitDx=0;exitDy=0;" edge="1" parent="A2EL7OXFkRKBXWNIuW4F-1" source="A2EL7OXFkRKBXWNIuW4F-5" target="YxU-ZAwT2Ezt56G2qYOe-8">
          <mxGeometry relative="1" as="geometry" />
        </mxCell>
        <mxCell id="A2EL7OXFkRKBXWNIuW4F-5" value="" style="rounded=0;whiteSpace=wrap;html=1;dashed=1;" vertex="1" parent="A2EL7OXFkRKBXWNIuW4F-1">
          <mxGeometry x="440" y="200" width="160" height="80" as="geometry" />
        </mxCell>
        <mxCell id="A2EL7OXFkRKBXWNIuW4F-6" value="&lt;b&gt;&lt;font style=&quot;font-size: 18px;&quot;&gt;BOB STRUCTURE&lt;/font&gt;&lt;/b&gt;" style="text;html=1;align=center;verticalAlign=middle;whiteSpace=wrap;rounded=0;" vertex="1" parent="A2EL7OXFkRKBXWNIuW4F-1">
          <mxGeometry x="60" y="40" width="200" height="30" as="geometry" />
        </mxCell>
        <mxCell id="YxU-ZAwT2Ezt56G2qYOe-0" value="&lt;b&gt;&lt;font style=&quot;font-size: 18px;&quot;&gt;DBUFFER1&lt;/font&gt;&lt;/b&gt;" style="text;html=1;align=center;verticalAlign=middle;whiteSpace=wrap;rounded=0;" vertex="1" parent="A2EL7OXFkRKBXWNIuW4F-1">
          <mxGeometry x="680" y="120" width="60" height="30" as="geometry" />
        </mxCell>
        <mxCell id="YxU-ZAwT2Ezt56G2qYOe-7" value="&lt;b&gt;&lt;font style=&quot;font-size: 18px;&quot;&gt;BUFFER2&lt;/font&gt;&lt;/b&gt;" style="rounded=0;whiteSpace=wrap;html=1;" vertex="1" parent="A2EL7OXFkRKBXWNIuW4F-1">
          <mxGeometry x="80" y="280" width="160" height="80" as="geometry" />
        </mxCell>
        <mxCell id="YxU-ZAwT2Ezt56G2qYOe-8" value="&lt;div style=&quot;color: rgb(59, 59, 59); background-color: rgb(255, 255, 255); font-family: Consolas, &amp;quot;Courier New&amp;quot;, monospace; line-height: 19px; white-space: pre;&quot;&gt;&lt;font size=&quot;1&quot; style=&quot;&quot;&gt;&lt;span style=&quot;font-size: 16px;&quot;&gt;dst_addr1&lt;/span&gt;&lt;/font&gt;&lt;/div&gt;" style="rounded=0;whiteSpace=wrap;html=1;" vertex="1" parent="A2EL7OXFkRKBXWNIuW4F-1">
          <mxGeometry x="80" y="120" width="160" height="40" as="geometry" />
        </mxCell>
        <mxCell id="YxU-ZAwT2Ezt56G2qYOe-11" value="&lt;div style=&quot;color: rgb(59, 59, 59); background-color: rgb(255, 255, 255); font-family: Consolas, &amp;quot;Courier New&amp;quot;, monospace; line-height: 19px; white-space: pre;&quot;&gt;&lt;font size=&quot;1&quot; style=&quot;&quot;&gt;&lt;span style=&quot;font-size: 16px;&quot;&gt;dst_addr2&lt;/span&gt;&lt;/font&gt;&lt;/div&gt;" style="rounded=0;whiteSpace=wrap;html=1;" vertex="1" parent="A2EL7OXFkRKBXWNIuW4F-1">
          <mxGeometry x="80" y="160" width="160" height="40" as="geometry" />
        </mxCell>
        <mxCell id="YxU-ZAwT2Ezt56G2qYOe-12" value="&lt;div style=&quot;color: rgb(59, 59, 59); background-color: rgb(255, 255, 255); font-family: Consolas, &amp;quot;Courier New&amp;quot;, monospace; line-height: 19px; white-space: pre;&quot;&gt;&lt;div style=&quot;font-size: 14px; line-height: 19px;&quot;&gt;bltsize&lt;/div&gt;&lt;/div&gt;" style="rounded=0;whiteSpace=wrap;html=1;" vertex="1" parent="A2EL7OXFkRKBXWNIuW4F-1">
          <mxGeometry x="80" y="80" width="160" height="40" as="geometry" />
        </mxCell>
      </root>
    </mxGraphModel>
  </diagram>
  <diagram name="Pagina-5" id="gevJ07zIEi9s5JJO95hx">
    <mxGraphModel dx="1426" dy="755" grid="1" gridSize="10" guides="1" tooltips="1" connect="1" arrows="1" fold="1" page="1" pageScale="1" pageWidth="1169" pageHeight="827" math="0" shadow="0">
      <root>
        <mxCell id="gHAPp9n2DHVo7EATceV1-0" />
        <mxCell id="gHAPp9n2DHVo7EATceV1-1" parent="gHAPp9n2DHVo7EATceV1-0" />
        <mxCell id="gHAPp9n2DHVo7EATceV1-2" value="" style="rounded=0;whiteSpace=wrap;html=1;" vertex="1" parent="gHAPp9n2DHVo7EATceV1-1">
          <mxGeometry x="60" y="40" width="200" height="360" as="geometry" />
        </mxCell>
        <mxCell id="gHAPp9n2DHVo7EATceV1-3" value="" style="rounded=0;whiteSpace=wrap;html=1;" vertex="1" parent="gHAPp9n2DHVo7EATceV1-1">
          <mxGeometry x="320" y="120" width="440" height="240" as="geometry" />
        </mxCell>
        <mxCell id="gHAPp9n2DHVo7EATceV1-4" value="&lt;b&gt;&lt;font style=&quot;font-size: 18px;&quot;&gt;BUFFER1&lt;/font&gt;&lt;/b&gt;" style="rounded=0;whiteSpace=wrap;html=1;" vertex="1" parent="gHAPp9n2DHVo7EATceV1-1">
          <mxGeometry x="80" y="200" width="160" height="80" as="geometry" />
        </mxCell>
        <mxCell id="gHAPp9n2DHVo7EATceV1-5" style="edgeStyle=orthogonalEdgeStyle;rounded=0;orthogonalLoop=1;jettySize=auto;html=1;entryX=1;entryY=0.5;entryDx=0;entryDy=0;endArrow=none;endFill=0;startArrow=classic;startFill=1;" edge="1" parent="gHAPp9n2DHVo7EATceV1-1" source="gHAPp9n2DHVo7EATceV1-7" target="gHAPp9n2DHVo7EATceV1-4">
          <mxGeometry relative="1" as="geometry" />
        </mxCell>
        <mxCell id="gHAPp9n2DHVo7EATceV1-6" style="edgeStyle=orthogonalEdgeStyle;rounded=0;orthogonalLoop=1;jettySize=auto;html=1;entryX=1;entryY=0.5;entryDx=0;entryDy=0;exitX=0;exitY=0;exitDx=0;exitDy=0;startArrow=classic;startFill=1;endArrow=none;endFill=0;" edge="1" parent="gHAPp9n2DHVo7EATceV1-1" source="gHAPp9n2DHVo7EATceV1-7" target="gHAPp9n2DHVo7EATceV1-11">
          <mxGeometry relative="1" as="geometry" />
        </mxCell>
        <mxCell id="gHAPp9n2DHVo7EATceV1-7" value="" style="rounded=0;whiteSpace=wrap;html=1;dashed=1;" vertex="1" parent="gHAPp9n2DHVo7EATceV1-1">
          <mxGeometry x="440" y="200" width="160" height="80" as="geometry" />
        </mxCell>
        <mxCell id="gHAPp9n2DHVo7EATceV1-8" value="&lt;b&gt;&lt;font style=&quot;font-size: 18px;&quot;&gt;BOB STRUCTURE&lt;/font&gt;&lt;/b&gt;" style="text;html=1;align=center;verticalAlign=middle;whiteSpace=wrap;rounded=0;" vertex="1" parent="gHAPp9n2DHVo7EATceV1-1">
          <mxGeometry x="60" y="40" width="200" height="30" as="geometry" />
        </mxCell>
        <mxCell id="gHAPp9n2DHVo7EATceV1-9" value="&lt;b&gt;&lt;font style=&quot;font-size: 18px;&quot;&gt;DBUFFER1&lt;/font&gt;&lt;/b&gt;" style="text;html=1;align=center;verticalAlign=middle;whiteSpace=wrap;rounded=0;" vertex="1" parent="gHAPp9n2DHVo7EATceV1-1">
          <mxGeometry x="680" y="120" width="60" height="30" as="geometry" />
        </mxCell>
        <mxCell id="gHAPp9n2DHVo7EATceV1-10" value="&lt;b&gt;&lt;font style=&quot;font-size: 18px;&quot;&gt;BUFFER2&lt;/font&gt;&lt;/b&gt;" style="rounded=0;whiteSpace=wrap;html=1;" vertex="1" parent="gHAPp9n2DHVo7EATceV1-1">
          <mxGeometry x="80" y="280" width="160" height="80" as="geometry" />
        </mxCell>
        <mxCell id="gHAPp9n2DHVo7EATceV1-11" value="&lt;div style=&quot;color: rgb(59, 59, 59); background-color: rgb(255, 255, 255); font-family: Consolas, &amp;quot;Courier New&amp;quot;, monospace; line-height: 19px; white-space: pre;&quot;&gt;&lt;font size=&quot;1&quot; style=&quot;&quot;&gt;&lt;span style=&quot;font-size: 16px;&quot;&gt;dst_addr1&lt;/span&gt;&lt;/font&gt;&lt;/div&gt;" style="rounded=0;whiteSpace=wrap;html=1;" vertex="1" parent="gHAPp9n2DHVo7EATceV1-1">
          <mxGeometry x="80" y="120" width="160" height="40" as="geometry" />
        </mxCell>
        <mxCell id="gHAPp9n2DHVo7EATceV1-12" value="&lt;div style=&quot;color: rgb(59, 59, 59); background-color: rgb(255, 255, 255); font-family: Consolas, &amp;quot;Courier New&amp;quot;, monospace; line-height: 19px; white-space: pre;&quot;&gt;&lt;font size=&quot;1&quot; style=&quot;&quot;&gt;&lt;span style=&quot;font-size: 16px;&quot;&gt;dst_addr2&lt;/span&gt;&lt;/font&gt;&lt;/div&gt;" style="rounded=0;whiteSpace=wrap;html=1;" vertex="1" parent="gHAPp9n2DHVo7EATceV1-1">
          <mxGeometry x="80" y="160" width="160" height="40" as="geometry" />
        </mxCell>
        <mxCell id="gHAPp9n2DHVo7EATceV1-13" value="&lt;div style=&quot;color: rgb(59, 59, 59); background-color: rgb(255, 255, 255); font-family: Consolas, &amp;quot;Courier New&amp;quot;, monospace; line-height: 19px; white-space: pre;&quot;&gt;&lt;div style=&quot;font-size: 14px; line-height: 19px;&quot;&gt;bltsize&lt;/div&gt;&lt;/div&gt;" style="rounded=0;whiteSpace=wrap;html=1;" vertex="1" parent="gHAPp9n2DHVo7EATceV1-1">
          <mxGeometry x="80" y="80" width="160" height="40" as="geometry" />
        </mxCell>
      </root>
    </mxGraphModel>
  </diagram>
</mxfile>
